<?xml version="1.0" encoding="utf-8"?>
<!-- Generator: Adobe Illustrator 19.0.0, SVG Export Plug-In . SVG Version: 6.00 Build 0)  -->
<svg version="1.1" id="Layer_1" xmlns="http://www.w3.org/2000/svg" xmlns:xlink="http://www.w3.org/1999/xlink" x="0px" y="0px"
	 viewBox="0 0 500 500" style="enable-background:new 0 0 500 500;" xml:space="preserve">
<style type="text/css">
	.st0{fill:#EA0B8C;}
</style>
<g id="XMLID_1_">
	<path id="XMLID_2_" class="st0" d="M67.5,125.3h55.4v148.8c0,23.5,10.8,37.6,19.3,43.6c-9,8-36.6,15-57.1-2
		c-12.1-10-17.6-26.5-17.6-42.1V125.3z M413.9,248.9v-15.6h16.9v-54.8h-18.6c-7.1-32.9-36.4-57.6-71.5-57.6
		c-40.4,0-73.1,32.7-73.1,73.1V322c11.5,1.6,25.2-0.2,36.9-9.9c12.1-10,17.6-26.5,17.6-42.1v-4.7h27.7v-54.8h-27.7V194h0.1
		c0-10.3,8.3-18.6,18.6-18.6c10.3,0,18.6,8.3,18.6,18.6v54.9c0,40.4,32.8,73.1,73.2,73.1v-54.6C422.2,267.5,413.9,259.2,413.9,248.9
		z M204,178.4v80.5c0,4.6-3.8,8.3-8.5,8.3c-4.7,0-8.5-3.7-8.5-8.3v-80.5h-54.8v94.7c0,17,5.8,38.6,32.1,45.6
		c26.3,7,41.6-7.5,41.6-7.5c-1.4,9.6-10.4,16.6-24.9,18.1c-11,1.1-25-2.5-32.1-5.5v50.2c17.9,5.3,36.8,7,55.2,3.4
		c33.6-6.5,54.7-34.6,54.7-71.9v-127H204z"/>
</g>
</svg>
